<svg height="360" viewBox="0 0 2560 1440" width="640" xmlns="http://www.w3.org/2000/svg" xmlns:xlink="http://www.w3.org/1999/xlink">
        <g transform="matrix(1.3333333 0 0 -1.3333333 0 1440)">
                <path d="m277.6528 1027.41h1332.1322c48.197 0 77.115 0 96.393-8.048 27.792-10.116 49.685-32.0082 59.8-59.8 8.049-19.2786 8.049-48.1965 8.049-96.3929v-627.9532c0-48.1964 0-77.1143-8.049-96.3929-10.115-27.7918-32.008-49.68439-59.8-59.79976-19.278-8.04855-48.196-8.04855-96.393-8.04855h-1332.1322c-48.1965 0-77.1143 0-96.3929 8.04855-27.7918 10.11537-49.6844 32.00796-59.7998 59.79976-8.0485 19.2786-8.0485 48.1965-8.0485 96.3929v627.9532c0 48.1964 0 77.1143 8.0485 96.3929 10.1154 27.7918 32.008 49.684 59.7998 59.8 19.2786 8.048 48.1964 8.048 96.3929 8.048z"/>
                <path d="m391.6001 902.0811h1104.2379c39.951 0 63.922 0 79.903-6.6716 23.037-8.3849 41.184-26.5322 49.569-49.5695 6.672-15.9805 6.672-39.9513 6.672-79.9025v-451.875c0-39.9512 0-63.922-6.672-79.9025-8.385-23.0373-26.532-41.1846-49.569-49.5695-15.981-6.6716-39.952-6.6716-79.903-6.6716h-1104.2379c-39.9512 0-63.922 0-79.9025 6.6716-23.0373 8.3849-41.1846 26.5322-49.5695 49.5695-6.6716 15.9805-6.6716 39.9513-6.6716 79.9025v451.875c0 39.9512 0 63.922 6.6716 79.9025 8.3849 23.0373 26.5322 41.1846 49.5695 49.5695 15.9805 6.6716 39.9513 6.6716 79.9025 6.6716z" fill="#fff"/>
                <path d="m515.7899 773.6447h855.8581c30.965 0 49.544 0 61.93-5.171 17.856-6.4988 31.921-20.5642 38.42-38.4196 5.171-12.386 5.171-30.9649 5.171-61.9298v-237.8636c0-30.9648 0-49.5438-5.171-61.9297-6.499-17.8555-20.564-31.9209-38.42-38.4197-12.386-5.171-30.965-5.171-61.93-5.171h-855.8581c-30.9649 0-49.5438 0-61.9298 5.171-17.8554 6.4988-31.9208 20.5642-38.4197 38.4197-5.171 12.3859-5.171 30.9649-5.171 61.9297v237.8636c0 30.9649 0 49.5438 5.171 61.9298 6.4989 17.8554 20.5643 31.9208 38.4197 38.4196 12.386 5.171 30.9649 5.171 61.9298 5.171z"/>
                <g fill="#fff">
                        <path d="m456.7567 669.8417 59.3731-229.9652c3.7415-8.6902 9.2783-16.1575 16.0184-22.1178 5.2994-4.6863 11.6067-8.6716 19.0533-9.5061 9.0321-1.0122 17.3851 2.8396 24.668 7.5217 9.597 6.1698 18.1489 14.2004 25.0653 23.9573l63.9207 136.3809 65.869-136.1859c4.4033-8.359 10.1398-15.5628 16.8123-21.5265 6.4118-5.7307 14.304-10.6927 23.297-9.6897 6.2641.6987 11.4697 4.2267 15.9383 8.149 5.688 4.9927 10.6164 11.0078 14.4584 17.9628l60.2224 234.8446-71.917.3562-31.9581-140.7522-77.2411 141.0594-38.8643.1572-73.1049-142.7345-32.8866 141.9034z"/>
                        <path d="m871.3115 569.4229v-160.0304l184.5815.1833c57.017 17.5682 95.944 70.2263 96.017 129.889.073 59.387-38.39 111.9563-95.015 129.8589h-137.0838l-47.9156-66.1673h158.0784c35.527-.1515 63.848-29.7283 62.46-65.2278-1.268-32.417-27.358-58.3507-59.782-59.424h-90.0996v90.6466z"/>
                        <path d="m1401.323 408.1161h-130.211c-63.583 10.9665-109.936 66.2686-109.624 130.7898.311 64.5137 47.185 119.3611 110.863 129.7205h180.705l-43.168-65.4849h-128.925c-32.227-3.6549-56.575-30.9215-56.574-63.3556 0-32.2684 24.128-59.4407 56.17-63.2609l172.441.4873z"/>
                </g>
        </g>
</svg>