<svg height="113.21" width="300" xmlns="http://www.w3.org/2000/svg">
        <path d="m58.375 4.59375c-29.05432 0-52.625 23.57068-52.625 52.625s23.57068 52.59375 52.625 52.59375c5.587369 0 10.979977-.88711 16.03125-2.5v-26.25c-4.362097 2.536231-9.466925 4-14.9375 4-15.987739 0-28.9375-12.465105-28.9375-27.84375s12.949761-27.84375 28.9375-27.84375c5.470575 0 10.575403 1.463769 14.9375 4v-26.28125c-5.051273-1.614759-10.443881-2.5-16.03125-2.5z"/>
        <g transform="matrix(.330752 0 0 .321694 15.34867 12.07971)">
                <path d="m179.959 78.103h118.5l-53 56.75h-65.5z"/>
                <path d="m179.959 203.103h118.5l-53-56.75h-65.5z"/>
        </g>
        <text/>
        <text x="179.48894" y="51.516186">
                <tspan/>
        </text>
        <text font-family="Helvetica-Bold" font-size="85.3333" x="119.3867" y="89.540031">
                <tspan x="119.3867" y="89.540031">CSG
                </tspan>
        </text>
</svg>