<svg height="90" viewBox="0 0 90 90" width="90" xmlns="http://www.w3.org/2000/svg">
        <path d="m248.02506 754.67531c-6.2675-5.97375-13.72375-8.96375-22.35962-8.96375l.35637 21.825c.11525 5.79625 1.7715 10.11375 4.96825 12.95375l19.6975 14.01738c4.49375-5.083 6.74125-11.11988 6.74125-18.09863 0-8.51625-3.13875-15.76-9.40375-21.73375zm-50.75275 0c-6.272 5.97375-9.40575 13.2175-9.40575 21.73375 0 6.74375 2.30512 12.77538 6.92237 18.09863l19.52151-14.01738c3.19137-2.84 4.84712-7.1575 4.96725-12.95375l.356-21.825c-8.63526 0-16.09188 2.99-22.36138 8.96375zm30.8815 34.86463c-1.7755-2.12713-2.96012-4.73213-3.55237-7.80713-.23538-1.7725-.41363-4.67-.52938-8.69375l-.53462-27.68375-.88525.17875-.89063-.17875-.52925 27.68375c-.12012 7.8075-1.483 13.30875-4.08212 16.50088l-11.17726 13.666c5.439 2.71925 10.99913 4.07662 16.67926 4.07662 5.67537 0 11.23537-1.35737 16.67912-4.07662z" fill="#231f20" fill-rule="evenodd" transform="translate(-187.3003 -745.05317)"/>
</svg>