<svg height="360" viewBox="0 0 640 360" width="640" xmlns="http://www.w3.org/2000/svg">
                <path d="m92.550781 17.529297c-16.065499 0-25.704659.000927-32.130859 2.683594-9.263933 3.372-16.561794 10.66966-19.933594 19.933593-2.682833 6.4262-2.68164 16.065393-2.68164 32.13086v209.316406c-.000001 16.06547-.0012 25.70661 2.68164 32.13281 3.3718 9.26394 10.669661 16.55985 19.933594 19.93164 6.4262 2.68285 16.06536 2.6836 32.130859 2.6836h444.044919c16.06567 0 25.70486-.00075 32.13086-2.6836 9.264-3.37179 16.56193-10.6677 19.9336-19.93164 2.683-6.4262 2.68164-16.06734 2.68164-32.13281v-209.316406c0-16.065467.001-25.70466-2.68164-32.13086-3.37167-9.263933-10.6696-16.561593-19.9336-19.933593-6.426-2.682667-16.06519-2.683594-32.13086-2.683594zm37.982419 41.777344h368.08008c13.317 0 21.30581-.0012 26.63281 2.222656 7.679 2.794966 13.72844 8.844338 16.52344 16.523437 2.224 5.326834 2.22461 13.3177 2.22461 26.634766v150.625c0 13.31707-.00061 21.30793-2.22461 26.63477-2.795 7.6791-8.84444 13.72847-16.52344 16.52343-5.327 2.22387-13.31581 2.22266-26.63281 2.22266h-368.08008c-13.31706 0-21.30793.001-26.63476-2.22266-7.679102-2.79496-13.72652-8.84433-16.521487-16.52343-2.223866-5.32684-2.224609-13.3177-2.224609-26.63477v-150.625c0-13.317066.000743-21.307932 2.224609-26.634766 2.794967-7.679099 8.842385-13.728471 16.521487-16.523437 5.32683-2.223867 13.3177-2.222656 26.63476-2.222656z"/>
                <path d="m171.92969 102.11914c-10.32164 0-16.51391-.001-20.64258 1.72266-5.9518 2.16626-10.64034 6.85484-12.80664 12.80664-1.72367 4.12866-1.72461 10.32094-1.72461 20.64258v79.28906c0 10.3216.00094 16.51394 1.72461 20.64258 2.1663 5.95183 6.85484 10.64037 12.80664 12.80664 4.12867 1.72366 10.32094 1.72461 20.64258 1.72461h285.28711c10.32166 0 16.51391-.00095 20.64258-1.72461 5.95199-2.16627 10.6403-6.85481 12.80664-12.80664 1.72366-4.12864 1.7246-10.32098 1.7246-20.64258v-79.28906c.00001-10.32164-.00094-16.51392-1.7246-20.64258-2.16634-5.9518-6.85465-10.64038-12.80664-12.80664-4.12867-1.72367-10.32092-1.72266-20.64258-1.72266zm41.89453 34.38477 12.95508.0527 25.74609 47.01953 10.65234-46.91797 23.97266.11914-20.07422 78.28125c-1.28066 2.31834-2.92236 4.32404-4.81836 5.98829-1.48953 1.30743-3.22446 2.48389-5.3125 2.71679-2.99766.33434-5.62836-1.32023-7.76562-3.23047-2.22417-1.9879-4.1377-4.38944-5.60547-7.17578l-21.95508-45.39453-21.30664 45.45899c-2.30547 3.25229-5.15647 5.92972-8.35547 7.98632-2.42763 1.5607-5.21196 2.84522-8.22265 2.50782-2.48221-.27817-4.5851-1.60587-6.35157-3.16797-2.2467-1.98677-4.09267-4.47632-5.33984-7.37305l-19.79102-76.65625 26.24219.0625 10.96094 47.30078zm92.7793.38867h45.69531c18.875 5.96753 31.69621 23.48949 31.67187 43.28515-.0243 19.88757-13.00019 37.44081-32.00586 43.29688l-61.52734.0605v-53.34375l23.74609.0918v30.21485h30.03321c10.808-.35777 19.50506-9.00098 19.92773-19.80664.46267-11.83317-8.97798-21.69364-20.82031-21.74414h-52.69141zm117.51367.23242h60.23437l-14.38867 21.82812h-42.97461c-10.74233 1.21831-18.85971 10.30778-18.85937 21.11915 0 10.75613 8.04394 19.81253 18.72461 21.08593l57.48046-.16211-17.22656 22.96485h-43.4043c-21.19433-3.6555-36.64501-22.08864-36.54101-43.59571.10367-21.50456 15.72908-39.7871 36.95508-43.24023z"/>
</svg>